<svg width="215" height="140" viewBox="0 0 215 140" fill="none" xmlns="http://www.w3.org/2000/svg">
<g clip-path="url(#clip0_39_82)">
<path d="M34.9278 65.1919C38.0751 65.1919 40.6266 62.6264 40.6266 59.4618C40.6266 56.2971 38.0751 53.7317 34.9278 53.7317C31.7804 53.7317 29.229 56.2971 29.229 59.4618C29.229 62.6264 31.7804 65.1919 34.9278 65.1919Z" fill="#FFB8B8"/>
<path d="M15.6716 128.128L17.1146 130.593L27.2569 126.17L25.1271 122.532L15.6716 128.128Z" fill="#FFB8B8"/>
<path d="M16.1041 127.026L18.9458 131.88L18.946 131.88C19.1838 132.286 19.3397 132.736 19.4048 133.202C19.4699 133.669 19.4429 134.144 19.3253 134.601C19.2078 135.057 19.002 135.486 18.7197 135.862C18.4374 136.238 18.0842 136.555 17.6801 136.794L17.5802 136.853L12.9275 128.906L16.1041 127.026Z" fill="#2F2E41"/>
<path d="M32.3908 137.008L35.2355 137.008L36.5887 125.975L32.3904 125.976L32.3908 137.008Z" fill="#FFB8B8"/>
<path d="M31.6653 136.074L37.2673 136.074H37.2675C37.7363 136.074 38.2006 136.167 38.6337 136.347C39.0668 136.527 39.4604 136.792 39.7919 137.125C40.1234 137.459 40.3864 137.854 40.5658 138.29C40.7452 138.725 40.8376 139.192 40.8376 139.663V139.78L31.6655 139.78L31.6653 136.074Z" fill="#2F2E41"/>
<path d="M20.9546 130.324C20.7909 130.324 20.6295 130.285 20.4834 130.211C20.3373 130.137 20.2107 130.029 20.1137 129.896L17.3703 126.15C17.2866 126.035 17.2269 125.905 17.1946 125.767C17.1624 125.629 17.1583 125.486 17.1827 125.346C17.2071 125.206 17.2594 125.073 17.3365 124.954C17.4136 124.835 17.5139 124.733 17.6313 124.654L29.839 116.456L22.473 96.981L38.2251 98.288L38.7556 115.023C38.8054 116.548 38.4421 118.057 37.7046 119.389C36.967 120.721 35.8831 121.827 34.5687 122.588L21.4763 130.183C21.3178 130.275 21.1378 130.324 20.9546 130.324Z" fill="#2F2E41"/>
<path d="M32.4767 134.768C32.2066 134.768 31.9471 134.662 31.7529 134.473C31.5587 134.284 31.4448 134.027 31.4352 133.756L30.8579 117.452L38.0062 117.073L37.437 133.494C37.4287 133.754 37.3242 134.002 37.1441 134.189C36.9639 134.376 36.7209 134.488 36.4626 134.505L32.5477 134.766C32.5239 134.767 32.5003 134.768 32.4767 134.768Z" fill="#2F2E41"/>
<path d="M40.048 101.526C38.2293 101.526 31.8768 99.4687 29.6715 98.7355C29.3416 99.001 27.5292 100.364 25.4136 100.115C24.1082 99.9606 22.959 99.2176 21.9979 97.9062C19.8756 95.01 22.4969 82.5897 25.0697 72.6804C25.5855 70.6774 26.8535 68.9535 28.6072 67.871C30.3609 66.7885 32.4636 66.4318 34.4734 66.8759C35.9301 67.1992 37.2682 67.9246 38.3375 68.9705C39.4067 70.0164 40.1648 71.3414 40.5264 72.7966C41.0108 74.7792 40.5941 77.1113 40.2898 78.8143C40.1468 79.6149 40.0338 80.2474 40.0724 80.5581C40.2218 81.7593 41.0513 100.597 40.5179 101.401C40.4611 101.487 40.2968 101.526 40.048 101.526Z" fill="#20564E"/>
<path d="M33.3948 101.559C33.6871 101.34 33.9281 101.06 34.1009 100.737C34.2737 100.414 34.374 100.058 34.3949 99.6919C34.4157 99.3261 34.3565 98.9601 34.2215 98.6198C34.0864 98.2795 33.8788 97.9731 33.6133 97.7222L33.7259 74.8953L28.3789 75.7905L29.9495 97.9472C29.5599 98.4237 29.3576 99.0273 29.3811 99.6437C29.4045 100.26 29.652 100.847 30.0767 101.292C30.5013 101.737 31.0737 102.01 31.6852 102.059C32.2968 102.109 32.9051 101.931 33.3948 101.559Z" fill="#FFB8B8"/>
<path d="M34.6313 89.5548H28.872C28.5969 89.554 28.3333 89.4444 28.1379 89.2498C27.9425 89.0551 27.8312 88.791 27.8278 88.5145L27.6864 72.8153C27.6816 72.2724 27.7837 71.734 27.9871 71.2311C28.1905 70.7282 28.491 70.2709 28.8712 69.8855C29.2515 69.5002 29.704 69.1944 30.2025 68.986C30.701 68.7776 31.2357 68.6706 31.7756 68.6713C32.3155 68.6719 32.8499 68.7802 33.348 68.9899C33.846 69.1995 34.2977 69.5064 34.677 69.8927C35.0564 70.279 35.3558 70.737 35.5579 71.2404C35.76 71.7438 35.8609 72.2825 35.8547 72.8253L35.6753 88.517C35.6712 88.7931 35.5595 89.0565 35.3643 89.2505C35.169 89.4446 34.9058 89.5539 34.6313 89.5548Z" fill="#20564E"/>
<path d="M33.4767 65.168C30.8675 65.1729 28.4059 63.0991 27.9538 60.5153C27.7919 59.5002 27.8649 58.4613 28.1671 57.4792C28.4952 56.3612 29.0578 55.3269 29.8172 54.446C30.5765 53.5652 31.5148 52.8582 32.5688 52.3728C33.6228 51.8875 34.7681 51.635 35.9274 51.6323C37.0867 51.6297 38.2331 51.877 39.2893 52.3576C39.9873 52.6752 40.6748 53.1313 40.9944 53.8314C41.314 54.5316 41.114 55.5101 40.4149 55.8251C39.958 56.031 39.3846 55.9299 38.9793 56.2254C38.3971 56.6499 38.5469 57.5532 38.8069 58.2274C39.0669 58.9016 39.3609 59.7175 38.9251 60.2927C38.519 60.8286 37.7073 60.812 37.0679 60.6103C36.4285 60.4085 35.7974 60.0707 35.1308 60.1394C34.1585 60.2396 33.4598 61.2121 33.3305 62.1862C33.2012 63.1603 33.5056 64.134 33.8062 65.0691L33.4767 65.168Z" fill="#2F2E41"/>
<path d="M60.0946 140H0.232026C0.170489 140 0.111472 139.975 0.0679586 139.932C0.0244453 139.888 0 139.829 0 139.767C0 139.705 0.0244453 139.646 0.0679586 139.602C0.111472 139.558 0.170489 139.533 0.232026 139.533H60.0946C60.1562 139.533 60.2152 139.558 60.2587 139.602C60.3022 139.646 60.3267 139.705 60.3267 139.767C60.3267 139.829 60.3022 139.888 60.2587 139.932C60.2152 139.975 60.1562 140 60.0946 140Z" fill="#CCCCCC"/>
<path d="M211.171 101.38H62.4805C61.4655 101.379 60.4924 100.973 59.7747 100.251C59.057 99.5298 58.6532 98.5513 58.6521 97.5307V5.34122C58.6529 4.59352 58.9487 3.87669 59.4745 3.34798C60.0003 2.81927 60.7132 2.52186 61.4568 2.521H212.147C212.903 2.52186 213.628 2.82441 214.163 3.36226C214.698 3.90011 214.999 4.62935 215 5.38997V97.5307C214.999 98.5513 214.595 99.5298 213.877 100.251C213.16 100.973 212.186 101.379 211.171 101.38Z" fill="#F2F2F2"/>
<path d="M206.364 96.52H67.788C65.7566 96.52 64.104 94.9639 64.104 93.0512V12.7714C64.104 11.3529 65.3286 10.1989 66.8339 10.1989H207.273C208.803 10.1989 210.048 11.372 210.048 12.8138V93.0512C210.048 94.9639 208.395 96.52 206.364 96.52Z" fill="white"/>
<path d="M214.947 5.82088H58.5984V3.86107C58.5999 2.83709 59.0052 1.85551 59.7256 1.13168C60.4459 0.407836 61.4223 0.000849067 62.4407 0H211.104C212.123 0.000840431 213.099 0.407824 213.819 1.13166C214.54 1.85551 214.945 2.83709 214.947 3.86107V5.82088Z" fill="#3F3D56"/>
<path d="M65.5813 3.91564C66.1302 3.91564 66.5751 3.46823 66.5751 2.91631C66.5751 2.3644 66.1302 1.91699 65.5813 1.91699C65.0324 1.91699 64.5874 2.3644 64.5874 2.91631C64.5874 3.46823 65.0324 3.91564 65.5813 3.91564Z" fill="white"/>
<path d="M69.3537 3.91564C69.9026 3.91564 70.3476 3.46823 70.3476 2.91631C70.3476 2.3644 69.9026 1.91699 69.3537 1.91699C68.8048 1.91699 68.3599 2.3644 68.3599 2.91631C68.3599 3.46823 68.8048 3.91564 69.3537 3.91564Z" fill="white"/>
<path d="M73.1262 3.91564C73.6751 3.91564 74.1201 3.46823 74.1201 2.91631C74.1201 2.3644 73.6751 1.91699 73.1262 1.91699C72.5773 1.91699 72.1323 2.3644 72.1323 2.91631C72.1323 3.46823 72.5773 3.91564 73.1262 3.91564Z" fill="white"/>
<path d="M133.788 27.7521H106.686C106.282 27.7521 105.894 27.5907 105.609 27.3034C105.323 27.0162 105.162 26.6265 105.162 26.2202C105.162 25.814 105.323 25.4243 105.609 25.137C105.894 24.8498 106.282 24.6884 106.686 24.6884H133.788C134.192 24.6884 134.58 24.8498 134.866 25.137C135.151 25.4243 135.312 25.814 135.312 26.2202C135.312 26.6265 135.151 27.0162 134.866 27.3034C134.58 27.5907 134.192 27.7521 133.788 27.7521Z" fill="#CCCCCC"/>
<path d="M167.466 27.7521H140.364C139.96 27.7521 139.572 27.5907 139.286 27.3034C139.001 27.0162 138.84 26.6265 138.84 26.2202C138.84 25.814 139.001 25.4243 139.286 25.137C139.572 24.8498 139.96 24.6884 140.364 24.6884H167.466C167.87 24.6884 168.258 24.8498 168.543 25.137C168.829 25.4243 168.99 25.814 168.99 26.2202C168.99 26.6265 168.829 27.0162 168.543 27.3034C168.258 27.5907 167.87 27.7521 167.466 27.7521Z" fill="#CCCCCC"/>
<path d="M167.466 33.5572H120.317C119.913 33.5572 119.526 33.3958 119.24 33.1085C118.954 32.8212 118.794 32.4316 118.794 32.0253C118.794 31.619 118.954 31.2294 119.24 30.9421C119.526 30.6548 119.913 30.4934 120.317 30.4934H167.466C167.87 30.4934 168.258 30.6548 168.543 30.9421C168.829 31.2294 168.99 31.619 168.99 32.0253C168.99 32.4316 168.829 32.8212 168.543 33.1085C168.258 33.3958 167.87 33.5572 167.466 33.5572Z" fill="#CCCCCC"/>
<path d="M133.788 21.8665H106.686C106.282 21.866 105.895 21.7044 105.61 21.4172C105.325 21.1299 105.164 20.7406 105.164 20.3346C105.164 19.9287 105.325 19.5393 105.61 19.2521C105.895 18.9648 106.282 18.8032 106.686 18.8027H133.788C133.989 18.8025 134.187 18.8419 134.372 18.9188C134.557 18.9957 134.725 19.1085 134.867 19.2507C135.009 19.393 135.121 19.562 135.198 19.748C135.274 19.9339 135.314 20.1333 135.314 20.3346C135.314 20.5359 135.274 20.7353 135.198 20.9213C135.121 21.1073 135.009 21.2762 134.867 21.4185C134.725 21.5608 134.557 21.6736 134.372 21.7504C134.187 21.8273 133.989 21.8667 133.788 21.8665Z" fill="#CCCCCC"/>
<path d="M148.703 21.9471H141.005C140.601 21.9471 140.214 21.7857 139.928 21.4984C139.642 21.2111 139.482 20.8215 139.482 20.4152C139.482 20.0089 139.642 19.6193 139.928 19.332C140.214 19.0447 140.601 18.8833 141.005 18.8833H148.703C149.107 18.8833 149.495 19.0447 149.78 19.332C150.066 19.6193 150.226 20.0089 150.226 20.4152C150.226 20.8215 150.066 21.2111 149.78 21.4984C149.495 21.7857 149.107 21.9471 148.703 21.9471Z" fill="#CCCCCC"/>
<path d="M114.384 33.5572H106.686C106.282 33.5567 105.895 33.3951 105.61 33.1078C105.325 32.8206 105.164 32.4312 105.164 32.0253C105.164 31.6193 105.325 31.23 105.61 30.9428C105.895 30.6555 106.282 30.4939 106.686 30.4934H114.384C114.584 30.4932 114.782 30.5326 114.967 30.6095C115.152 30.6863 115.321 30.7991 115.462 30.9414C115.604 31.0837 115.716 31.2526 115.793 31.4386C115.87 31.6246 115.909 31.824 115.909 32.0253C115.909 32.2266 115.87 32.426 115.793 32.6119C115.716 32.7979 115.604 32.9669 115.462 33.1092C115.321 33.2514 115.152 33.3642 114.967 33.4411C114.782 33.518 114.584 33.5574 114.384 33.5572Z" fill="#CCCCCC"/>
<path d="M133.788 82.111H106.686C106.282 82.111 105.894 81.9496 105.609 81.6623C105.323 81.375 105.162 80.9854 105.162 80.5791C105.162 80.1728 105.323 79.7832 105.609 79.4959C105.894 79.2086 106.282 79.0472 106.686 79.0472H133.788C133.988 79.0472 134.187 79.0869 134.371 79.1638C134.556 79.2408 134.724 79.3537 134.866 79.4959C135.007 79.6382 135.119 79.807 135.196 79.9929C135.272 80.1787 135.312 80.3779 135.312 80.5791C135.312 80.7803 135.272 80.9795 135.196 81.1653C135.119 81.3512 135.007 81.5201 134.866 81.6623C134.724 81.8046 134.556 81.9174 134.371 81.9944C134.187 82.0714 133.988 82.111 133.788 82.111Z" fill="#CCCCCC"/>
<path d="M167.466 82.111H140.364C139.96 82.111 139.572 81.9496 139.286 81.6623C139.001 81.375 138.84 80.9854 138.84 80.5791C138.84 80.1728 139.001 79.7832 139.286 79.4959C139.572 79.2086 139.96 79.0472 140.364 79.0472H167.466C167.666 79.0472 167.864 79.0869 168.049 79.1638C168.234 79.2408 168.402 79.3537 168.543 79.4959C168.685 79.6382 168.797 79.807 168.874 79.9929C168.95 80.1787 168.99 80.3779 168.99 80.5791C168.99 80.7803 168.95 80.9795 168.874 81.1653C168.797 81.3512 168.685 81.5201 168.543 81.6623C168.402 81.8046 168.234 81.9174 168.049 81.9944C167.864 82.0714 167.666 82.111 167.466 82.111Z" fill="#CCCCCC"/>
<path d="M167.466 87.9162H120.317C119.913 87.9162 119.526 87.7548 119.24 87.4675C118.954 87.1802 118.794 86.7906 118.794 86.3843C118.794 85.978 118.954 85.5884 119.24 85.3011C119.526 85.0138 119.913 84.8524 120.317 84.8524H167.466C167.666 84.8522 167.865 84.8916 168.05 84.9685C168.235 85.0454 168.403 85.1581 168.545 85.3004C168.686 85.4427 168.799 85.6117 168.875 85.7976C168.952 85.9836 168.992 86.183 168.992 86.3843C168.992 86.5856 168.952 86.785 168.875 86.9709C168.799 87.1569 168.686 87.3259 168.545 87.4682C168.403 87.6104 168.235 87.7232 168.05 87.8001C167.865 87.877 167.666 87.9164 167.466 87.9162Z" fill="#CCCCCC"/>
<path d="M133.788 76.2254H106.686C106.282 76.2254 105.894 76.064 105.609 75.7767C105.323 75.4894 105.162 75.0998 105.162 74.6935C105.162 74.2872 105.323 73.8976 105.609 73.6103C105.894 73.323 106.282 73.1616 106.686 73.1616H133.788C134.192 73.1616 134.58 73.323 134.866 73.6103C135.151 73.8976 135.312 74.2872 135.312 74.6935C135.312 75.0998 135.151 75.4894 134.866 75.7767C134.58 76.064 134.192 76.2254 133.788 76.2254Z" fill="#CCCCCC"/>
<path d="M148.703 76.3061H141.005C140.601 76.3061 140.214 76.1447 139.928 75.8574C139.642 75.5701 139.482 75.1805 139.482 74.7742C139.482 74.3679 139.642 73.9783 139.928 73.691C140.214 73.4037 140.601 73.2423 141.005 73.2423H148.703C149.107 73.2423 149.495 73.4037 149.78 73.691C150.066 73.9783 150.226 74.3679 150.226 74.7742C150.226 75.1805 150.066 75.5701 149.78 75.8574C149.495 76.1447 149.107 76.3061 148.703 76.3061Z" fill="#CCCCCC"/>
<path d="M114.384 87.9162H106.686C106.282 87.9162 105.894 87.7548 105.609 87.4675C105.323 87.1802 105.162 86.7906 105.162 86.3843C105.162 85.978 105.323 85.5884 105.609 85.3011C105.894 85.0138 106.282 84.8524 106.686 84.8524H114.384C114.584 84.8522 114.782 84.8916 114.967 84.9685C115.152 85.0454 115.32 85.1581 115.462 85.3004C115.604 85.4427 115.716 85.6117 115.793 85.7976C115.87 85.9836 115.909 86.183 115.909 86.3843C115.909 86.5856 115.87 86.785 115.793 86.9709C115.716 87.1569 115.604 87.3259 115.462 87.4682C115.32 87.6104 115.152 87.7232 114.967 87.8001C114.782 87.877 114.584 87.9164 114.384 87.9162Z" fill="#CCCCCC"/>
<path d="M126.71 65.6651C126.135 65.6664 125.583 65.4392 125.173 65.0328L114.985 54.9171C114.785 54.7185 114.627 54.4819 114.518 54.2212C114.41 53.9604 114.354 53.6806 114.354 53.3979C114.354 53.1153 114.41 52.8355 114.518 52.5747C114.627 52.3139 114.785 52.0773 114.985 51.8787L125.132 41.8038C125.555 41.3861 126.124 41.1529 126.717 41.1548C127.31 41.1567 127.878 41.3935 128.298 41.8139C128.718 42.2376 128.954 42.8118 128.954 43.4104C128.954 44.009 128.718 44.5832 128.298 45.007L120.758 52.5884C120.523 52.8252 120.391 53.146 120.391 53.4804C120.391 53.8148 120.523 54.1356 120.758 54.3724L128.257 61.9127C128.563 62.22 128.772 62.6118 128.856 63.0384C128.941 63.465 128.898 63.9073 128.732 64.3092C128.566 64.711 128.286 65.0544 127.926 65.2958C127.566 65.5372 127.143 65.6657 126.71 65.6651V65.6651Z" fill="#20564E"/>
<path d="M142.944 65.6651C142.511 65.6657 142.088 65.5372 141.728 65.2958C141.368 65.0544 141.088 64.7111 140.922 64.3092C140.756 63.9073 140.713 63.465 140.798 63.0384C140.882 62.6118 141.091 62.22 141.397 61.9127L148.896 54.3724C149.131 54.1356 149.263 53.8149 149.263 53.4804C149.263 53.146 149.131 52.8252 148.896 52.5885L141.356 45.007C141.148 44.7973 140.982 44.5484 140.869 44.2745C140.757 44.0005 140.698 43.7069 140.698 43.4104C140.698 43.1139 140.757 42.8203 140.869 42.5464C140.982 42.2724 141.148 42.0235 141.356 41.8139C141.776 41.3935 142.344 41.1567 142.937 41.1548C143.53 41.1529 144.099 41.3861 144.522 41.8038L154.669 51.8787C154.869 52.0773 155.027 52.3139 155.136 52.5747C155.244 52.8355 155.3 53.1153 155.3 53.3979C155.3 53.6806 155.244 53.9604 155.136 54.2212C155.027 54.482 154.869 54.7185 154.669 54.9171L144.481 65.0328C144.071 65.4391 143.519 65.6664 142.944 65.6651Z" fill="#20564E"/>
</g>
<defs>
<clipPath id="clip0_39_82">
<rect width="215" height="140" fill="white"/>
</clipPath>
</defs>
</svg>
