<svg width="215" height="140" viewBox="0 0 215 140" fill="none" xmlns="http://www.w3.org/2000/svg">
<g clip-path="url(#clip0_39_116)">
<path d="M29.9888 138C46.5511 138 59.9775 125.08 59.9775 109.143C59.9775 93.206 46.5511 80.2865 29.9888 80.2865C13.4264 80.2865 0 93.206 0 109.143C0 125.08 13.4264 138 29.9888 138Z" fill="#F2F2F2"/>
<path d="M66.2655 121.942C51.606 121.942 37.4 117.051 26.068 108.102C14.736 99.1537 6.97922 86.7009 4.11925 72.8659C1.25929 59.0309 3.47312 44.6697 10.3835 32.2293C17.2939 19.7888 28.4734 10.0389 42.017 4.64073C55.5606 -0.75744 70.6304 -1.46984 84.6586 2.62491C98.6869 6.71966 110.806 15.3682 118.95 27.097C127.094 38.8257 130.761 52.9089 129.324 66.9471C127.887 80.9852 121.436 94.1096 111.07 104.084C105.2 109.764 98.2174 114.266 90.5267 117.332C82.836 120.397 74.5898 121.964 66.2655 121.942V121.942ZM66.2655 0.465251C31.5936 0.465251 3.38582 27.6079 3.38582 60.9709C3.38582 94.3339 31.5936 121.477 66.2655 121.477C100.937 121.477 129.145 94.3339 129.145 60.9709C129.145 27.6079 100.937 0.465251 66.2655 0.465251V0.465251Z" fill="#2F2E41"/>
<path d="M99.2773 80.2695L99.2702 80.273L68.0404 97.0062L33.8428 80.553L33.2535 80.2695L35.0284 46.1131L65.9104 24.936L66.2513 25.141L98.2125 44.4052L99.2773 80.2695Z" fill="#20564E"/>
<path opacity="0.3" d="M99.2702 80.273L68.0404 97.0062L33.8429 80.553L64.1357 60.1173L99.2702 80.273Z" fill="black"/>
<path opacity="0.1" d="M99.2773 80.2696L64.1356 60.1174L66.2513 25.1411L98.2125 44.4053L99.2773 80.2696Z" fill="black"/>
<path d="M34.5738 56.6529L34.4003 56.4165L65.6271 35.2075L98.6138 55.1084L98.4541 55.3537L65.6368 35.555L34.5738 56.6529Z" fill="#F2F2F2"/>
<path d="M33.9685 68.2568L33.7997 68.0175L64.868 47.7207L64.9494 47.7652L98.6416 66.1395L98.4931 66.3913L64.8823 48.0611L33.9685 68.2568Z" fill="#F2F2F2"/>
<path d="M45.8226 86.4017L45.6642 86.1558L76.9758 67.4862V31.6959H77.2765V67.6474L45.8226 86.4017Z" fill="#F2F2F2"/>
<path d="M58.1124 92.3137L57.9526 92.0686L88.1021 73.8723V38.4019H88.4028V74.0324L58.1124 92.3137Z" fill="#F2F2F2"/>
<path d="M87.9886 86.4052L52.9246 67.6586L52.9295 67.5684L54.7754 32.4617L55.0756 32.4764L53.2345 67.493L88.1347 86.1522L87.9886 86.4052Z" fill="#F2F2F2"/>
<path d="M76.9569 92.3194L42.2866 74.8368L42.292 74.7439L44.3358 39.6198L44.6361 39.636L42.5979 74.6671L77.0965 92.0631L76.9569 92.3194Z" fill="#F2F2F2"/>
<path d="M105.202 24.9004C111.881 24.9004 117.295 19.691 117.295 13.2647C117.295 6.83851 111.881 1.62903 105.202 1.62903C98.5241 1.62903 93.1102 6.83851 93.1102 13.2647C93.1102 19.691 98.5241 24.9004 105.202 24.9004Z" fill="#FF8640"/>
<path d="M215 137.534H7.01343V138H215V137.534Z" fill="#2F2E41"/>
<path d="M190.853 74.9461L193.617 82.2313C193.617 82.2313 190.733 90.5572 193.617 90.7885C196.501 91.0198 196.862 82.8095 196.862 82.8095L195.299 74.021L190.853 74.9461Z" fill="#FFB9B9"/>
<path d="M192.175 51.1246L194.218 53.0905V62.4572C194.218 62.4572 195.419 64.1918 195.179 64.6543C194.939 65.1169 194.698 65.1169 194.939 65.4638C195.179 65.8107 195.419 66.042 195.179 66.2732C195.062 66.4233 194.999 66.6059 194.999 66.7936C194.999 66.9813 195.062 67.1638 195.179 67.314C195.419 67.5452 195.9 67.8922 195.54 68.2391C195.179 68.586 194.698 68.3547 195.179 69.6267C195.66 70.8988 196.501 71.2457 196.261 71.7082C196.02 72.1708 196.02 73.3272 196.02 73.3272L190.853 74.021L189.771 60.9539L192.175 51.1246Z" fill="#D0CDE1"/>
<path d="M196.261 73.2117L190.252 73.4429L190.492 75.8712L195.78 74.9461L196.261 73.2117Z" fill="#3F3D56"/>
<path d="M179.737 39.0404L179.016 45.9789L186.346 47.0195L186.887 43.03L187.428 39.0404H179.737Z" fill="#FFB9B9"/>
<path opacity="0.1" d="M179.737 39.0404L179.016 45.9789L186.346 47.0195L186.887 43.03L187.428 39.0404H179.737Z" fill="black"/>
<path d="M163.813 72.0552L167.899 80.4967C167.899 80.4967 168.62 84.4284 169.702 84.5441C170.784 84.6597 171.865 80.4967 171.865 80.4967L170.423 78.2996L168.741 72.0552L163.813 72.0552Z" fill="#FFB9B9"/>
<path d="M172.346 79.6872L168.981 84.7753C168.981 84.7753 165.736 133.228 166.217 132.881C166.698 132.534 168.26 132.418 168.861 131.493C169.462 130.568 173.187 131.493 173.187 131.493L175.35 129.296V127.561C175.35 127.214 179.677 100.733 179.677 100.733V107.44C179.677 107.44 178.355 132.071 180.518 131.84C182.681 131.609 187.128 130.221 187.128 130.221C187.128 130.221 193.497 84.1971 191.574 82.4625C189.651 80.728 188.81 76.7963 188.81 76.7963L172.346 79.6872Z" fill="#2F2E41"/>
<path d="M183.763 41.2955C186.948 41.2955 189.531 38.8104 189.531 35.7448C189.531 32.6793 186.948 30.1942 183.763 30.1942C180.577 30.1942 177.994 32.6793 177.994 35.7448C177.994 38.8104 180.577 41.2955 183.763 41.2955Z" fill="#FFB9B9"/>
<path d="M170.904 47.0773L170.063 46.6147C170.063 46.6147 166.337 49.0431 165.135 54.4781C163.934 59.9131 163.092 61.3008 163.092 61.3008C163.092 61.3008 161.891 61.532 162.732 62.3415C163.573 63.151 163.573 63.0353 162.852 63.4979C162.131 63.9605 161.65 63.0353 162.131 63.9604C162.612 64.8856 163.213 64.6543 162.732 65.2325C162.251 65.8107 161.41 65.8107 161.891 66.2732C162.371 66.7358 161.41 67.7765 162.011 68.2391C162.612 68.7016 162.852 68.8172 162.852 69.6267C162.848 70.0991 162.93 70.5686 163.092 71.0144H169.342C169.342 71.0144 168.14 68.8172 168.5 68.3547C168.861 67.8921 168.981 67.4296 168.741 67.1983C168.5 66.967 167.779 67.4296 168.5 66.8514C169.221 66.2732 169.462 66.6201 169.221 65.9263C168.981 65.2325 168.5 65.5794 168.981 65.2325C169.462 64.8856 169.822 65.0012 169.582 64.6543C169.342 64.3074 168.861 64.3074 169.342 64.0761C169.822 63.8448 170.183 64.0761 170.063 63.4979C169.942 62.9197 169.822 63.151 170.063 62.9197C170.303 62.6884 172.827 54.825 172.827 54.5938C172.827 54.3625 170.904 47.0773 170.904 47.0773Z" fill="#D0CDE1"/>
<path d="M169.702 70.5519L162.131 71.0145L164.054 72.7491L169.342 72.8648L169.702 70.5519Z" fill="#3F3D56"/>
<path d="M171.865 79.2247L170.303 82.0001C170.303 82.0001 174.99 82.5782 176.672 83.1564C178.355 83.7346 182.681 84.5441 182.681 84.5441L183.763 80.4968L171.865 79.2247Z" fill="#3F3D56"/>
<path d="M185.565 80.4967L186.887 84.3128L192.175 83.272L191.574 79.6873L185.565 80.4967Z" fill="#3F3D56"/>
<path d="M187.728 43.1456C187.728 43.1456 187.368 42.9144 186.527 43.3769C185.685 43.8395 182.921 44.0707 181.599 42.6831C180.277 41.2954 179.316 40.139 178.956 40.3703C178.595 40.6016 178.355 43.2613 178.355 43.2613L177.153 44.1864L170.063 46.6148L170.663 62.2259L171.745 65.8107C171.745 65.8107 170.904 68.586 171.985 70.2049C173.067 71.8239 171.385 72.4021 171.385 72.4021C171.385 72.4021 171.024 72.8646 171.264 74.021C171.505 75.1774 171.024 79.456 171.024 79.456C171.024 79.456 181.239 83.8502 191.934 80.0342L190.733 75.6399L190.132 65.8107C190.132 65.8107 190.733 64.1918 190.613 63.4979C190.492 62.8041 194.218 53.0905 194.218 53.0905C194.218 53.0905 193.617 48.2337 190.492 47.193C187.368 46.1522 186.887 45.1115 186.887 45.1115C186.887 45.1115 188.329 43.6082 187.728 43.1456Z" fill="#D0CDE1"/>
<path d="M177.954 36.4559C177.954 36.4559 177.355 35.5912 177.586 34.6601C177.723 34.1315 177.778 33.586 177.747 33.0418C178.005 32.2352 178.328 31.4494 178.715 30.6918C179.198 29.8494 178.968 29.4947 180.489 29.2287C182.009 28.9626 181.387 27.0561 185.396 29.1178C185.531 29.2995 185.719 29.4386 185.937 29.5175C186.154 29.5964 186.391 29.6116 186.617 29.5612C187.446 29.406 187.746 30.5145 187.746 30.5145C187.746 30.5145 188.299 30.2041 188.506 30.6475C188.713 31.0909 190.192 30.3814 190.192 33.3742C190.192 36.3671 188.51 39.0405 188.51 39.0405C188.51 39.0405 188.633 34.0061 185.891 33.4963C183.15 32.9864 180.201 31.501 179.486 33.4076C179.101 34.4776 178.587 35.5007 177.954 36.4559Z" fill="#2F2E41"/>
<path d="M188.57 37.6529C188.868 37.6529 189.11 37.3423 189.11 36.9591C189.11 36.5759 188.868 36.2653 188.57 36.2653C188.271 36.2653 188.029 36.5759 188.029 36.9591C188.029 37.3423 188.271 37.6529 188.57 37.6529Z" fill="#FFB9B9"/>
<path d="M185.505 129.811L186.35 132.251C186.35 132.251 186.35 134.691 187.196 135.911C188.041 137.131 188.886 139.774 185.505 139.977C182.125 140.18 180.645 138.961 180.645 138.961C180.645 138.961 181.279 137.334 180.645 136.724C180.012 136.114 180.645 134.894 180.645 134.894L181.279 130.015L185.505 129.811Z" fill="#2F2E41"/>
<path d="M169.041 129.811L168.196 132.251C168.196 132.251 168.196 134.691 167.351 135.911C166.506 137.131 165.661 139.774 169.041 139.977C172.422 140.18 173.901 138.961 173.901 138.961C173.901 138.961 173.267 137.334 173.901 136.724C174.535 136.114 173.901 134.894 173.901 134.894L173.267 130.015L169.041 129.811Z" fill="#2F2E41"/>
</g>
<defs>
<clipPath id="clip0_39_116">
<rect width="215" height="140" fill="white"/>
</clipPath>
</defs>
</svg>
