<svg width="215" height="140" viewBox="0 0 215 140" fill="none" xmlns="http://www.w3.org/2000/svg">
<g clip-path="url(#clip0_39_183)">
<path d="M172.658 130.211C171.263 135.142 166.373 138.223 166.373 138.223C166.373 138.223 163.745 133.31 165.141 128.38C166.536 123.449 171.426 120.368 171.426 120.368C171.426 120.368 174.054 125.281 172.658 130.211Z" fill="#FF8640"/>
<path d="M170.541 129.168C166.633 132.751 166.196 138.22 166.196 138.22C166.196 138.22 172.095 137.881 176.004 134.298C179.913 130.715 180.35 125.246 180.35 125.246C180.35 125.246 174.45 125.586 170.541 129.168Z" fill="#20564E"/>
<path d="M28.9183 111.56H36.2793L54.4189 104.974C54.4189 104.974 67.3006 100.096 66.249 109.365C65.1975 118.633 63.3572 131.073 63.3572 131.073C63.3572 131.073 57.5736 128.634 54.4189 129.365C51.2642 130.097 53.3673 114.487 53.3673 114.487C53.3673 114.487 27.6038 125.951 25.2378 124.487C22.8717 123.024 22.3459 112.78 22.3459 112.78L28.9183 111.56Z" fill="#2F2E41"/>
<path opacity="0.1" d="M28.9183 111.56H36.2793L54.4189 104.974C54.4189 104.974 67.3006 100.096 66.249 109.365C65.1975 118.633 63.3572 131.073 63.3572 131.073C63.3572 131.073 57.5736 128.634 54.4189 129.365C51.2642 130.097 53.3673 114.487 53.3673 114.487C53.3673 114.487 27.6038 125.951 25.2378 124.487C22.8717 123.024 22.3459 112.78 22.3459 112.78L28.9183 111.56Z" fill="black"/>
<path d="M40.5154 90.1725L49.4238 102.047L70.1923 118.145C70.1923 118.145 89.3835 122.292 86.7545 125.219C84.1256 128.146 68.0891 122.292 68.0891 122.292C68.0891 122.292 44.1659 106.194 43.3772 104.974C42.5885 103.755 33.9131 92.2911 33.9131 92.2911L40.5154 90.1725Z" fill="#A0616A"/>
<path opacity="0.1" d="M40.5154 90.1725L49.4238 102.047L70.1923 118.145C70.1923 118.145 89.3835 122.292 86.7545 125.219C84.1256 128.146 68.0891 122.292 68.0891 122.292C68.0891 122.292 44.1659 106.194 43.3772 104.974C42.5885 103.755 33.9131 92.2911 33.9131 92.2911L40.5154 90.1725Z" fill="black"/>
<path d="M35.2277 80.5835L41.0113 91.0716C41.0113 91.0716 39.6969 96.1937 37.5937 96.6815C35.4906 97.1693 26.5522 90.3399 26.5522 90.3399L35.2277 80.5835Z" fill="#D0CDE1"/>
<path opacity="0.1" d="M35.2277 80.5835L41.0113 91.0716C41.0113 91.0716 39.6969 96.1937 37.5937 96.6815C35.4906 97.1693 26.5522 90.3399 26.5522 90.3399L35.2277 80.5835Z" fill="black"/>
<path d="M105.785 106.13L107.494 112.668C107.513 112.741 107.51 112.817 107.485 112.889L99.7355 135.358C99.7048 135.447 99.6421 135.524 99.558 135.575C99.4738 135.626 99.3733 135.649 99.273 135.64C99.1728 135.631 99.079 135.59 99.0073 135.525C98.9356 135.459 98.8902 135.373 98.8789 135.28L97.8068 126.527C97.7996 126.469 97.8061 126.41 97.8256 126.354L104.939 106.099C104.969 106.015 105.027 105.942 105.106 105.891C105.185 105.84 105.279 105.814 105.375 105.818C105.47 105.821 105.562 105.854 105.636 105.91C105.711 105.966 105.763 106.043 105.785 106.13Z" fill="#2F2E41"/>
<path d="M105.157 106.682L106.734 112.292L99.8993 132.78L98.322 126.438L105.157 106.682Z" fill="#F2F2F2"/>
<path d="M70.7181 137.17C70.981 137.902 98.059 136.926 98.3219 136.683C98.5511 136.377 98.7449 136.05 98.9002 135.707C99.1474 135.219 99.3734 134.731 99.3734 134.731L98.3219 126.834L71.5068 125.951C71.5068 125.951 70.8364 132.643 70.6997 135.707C70.6656 136.48 70.6656 137.024 70.7181 137.17Z" fill="#2F2E41"/>
<path opacity="0.1" d="M94.9043 127.902L95.4299 134.731H83.5999V127.902H94.9043Z" fill="black"/>
<path opacity="0.1" d="M79.6565 130.097L79.7271 130.084L79.3936 133.024H72.8213V130.097H79.6565Z" fill="black"/>
<path opacity="0.1" d="M70.7181 137.17C70.981 137.902 98.059 136.926 98.3219 136.683C98.5511 136.377 98.7449 136.05 98.9002 135.707H70.6997C70.6656 136.48 70.6656 137.024 70.7181 137.17Z" fill="black"/>
<path d="M39.171 77.1687C45.7046 77.1687 51.0012 72.2547 51.0012 66.1928C51.0012 60.131 45.7046 55.2169 39.171 55.2169C32.6374 55.2169 27.3408 60.131 27.3408 66.1928C27.3408 72.2547 32.6374 77.1687 39.171 77.1687Z" fill="#A0616A"/>
<path d="M38.3824 75.9492C38.3824 75.9492 34.439 82.2909 33.6503 85.7056C32.8617 89.1203 21.8202 78.8762 21.8202 78.8762L20.3743 75.3395C20.3743 75.3395 30.7585 70.8272 29.9699 67.1685C29.1812 63.5099 38.3824 75.9492 38.3824 75.9492Z" fill="#A0616A"/>
<path d="M40.4855 94.974L51.2642 108.145L77.0276 125.95C77.0276 125.95 95.693 129.609 91.4867 132.292C87.2804 134.975 75.1874 129.853 75.1874 129.853C75.1874 129.853 49.161 116.926 43.6403 111.56C38.1195 106.194 27.8667 97.1692 27.8667 97.1692L40.4855 94.974Z" fill="#A0616A"/>
<path d="M26.0263 115.462L29.1811 120.097L48.0087 114.601C52.1398 113.395 56.6697 113.839 60.3339 115.981C63.62 117.902 65.7231 120.95 60.9911 125.463C51.5269 134.487 45.2175 129.609 45.2175 129.609C45.2175 129.609 13.4075 143.512 8.14964 136.683C2.89179 129.853 2.62891 126.438 2.62891 126.438C2.62891 126.438 22.8716 114.731 26.0263 115.462Z" fill="#2F2E41"/>
<path d="M65.4604 131.56C65.4604 131.56 73.873 136.683 63.883 139.122C53.8931 141.561 46.5321 138.146 46.5321 138.146C46.5321 138.146 37.8567 138.146 37.8567 134C37.8567 129.853 40.7485 129.365 40.7485 129.365L49.6869 130.585C49.6869 130.585 60.4654 127.902 65.4604 131.56Z" fill="#D0CDE1"/>
<path d="M48.8758 63.4318C49.681 63.7649 50.4795 64.159 51.3549 64.2557C52.2303 64.3524 53.2271 64.0688 53.6413 63.3468C53.8651 62.9568 53.8907 62.4981 53.9011 62.0564C53.9328 60.7171 53.8284 59.2692 52.9135 58.2326C52.3313 57.573 51.4815 57.1571 50.8788 56.5135C50.447 56.0523 50.1597 55.4934 49.8503 54.9542C48.6782 52.9119 46.9429 50.9491 44.5311 50.3603C43.524 50.1144 42.4676 50.1264 41.4263 50.1401L35.3529 50.2196C34.37 50.2324 33.372 50.2474 32.4312 50.5113C30.4763 51.0597 29.0529 52.5849 27.7494 54.0435C26.7741 55.1347 25.7962 56.2373 25.0643 57.4816C24.0149 59.2975 23.4843 61.3325 23.523 63.3926C23.5148 63.921 23.5884 64.4477 23.7413 64.9567C23.9202 65.4235 24.1419 65.8753 24.4039 66.307C25.5429 68.3826 26.2192 70.9751 24.9365 72.9773C27.1646 72.1328 29.3693 71.0256 30.8391 69.2572C31.4966 68.4661 32.0123 67.5401 32.8886 66.9595C33.7649 66.379 35.1927 66.3287 35.7549 67.1807C35.9482 67.5253 36.0477 67.9086 36.0448 68.2971C36.0859 68.9366 36.0847 69.6007 36.377 70.1812C36.6692 70.7616 37.3654 71.2299 38.03 71.0562C39.1746 70.7571 39.065 69.1272 39.9466 68.3869C40.6162 67.8246 41.6491 67.9321 42.5092 67.6768C43.5114 67.3794 44.2634 66.5739 44.6918 65.6823C45.0175 65.0046 45.0128 63.2311 45.6291 62.8641C46.4019 62.4038 48.1594 63.1355 48.8758 63.4318Z" fill="#2F2E41"/>
<path d="M19.4351 74.1824C19.9673 74.0507 20.5276 74.052 21.0591 74.1863C22.7466 74.6066 26.5297 75.7194 27.3408 77.4126C28.3924 79.6078 32.0729 83.0226 32.0729 83.0226C32.0729 83.0226 37.0679 87.6568 36.0163 90.8277C34.9647 93.9985 31.0213 97.6571 31.0213 97.6571C31.0213 97.6571 32.0729 112.779 26.8151 116.682C21.5572 120.585 19.4541 117.902 19.4541 121.56C19.4541 125.219 3.15471 136.683 0 129.609C0 129.609 1.57736 116.438 1.05157 111.804C0.533369 107.236 1.29199 78.7396 19.4351 74.1824Z" fill="#D0CDE1"/>
<path d="M27.8666 80.3395C27.8666 80.3395 43.9031 91.3154 41.0112 95.9496C41.0112 95.9496 31.2842 100.34 29.1811 100.096C27.0779 99.8522 18.9282 91.3154 16.8251 90.5836C14.722 89.8519 13.6704 76.6808 27.8666 80.3395Z" fill="#D0CDE1"/>
<path d="M99.5142 56.068C106.687 56.068 112.501 50.6734 112.501 44.0187C112.501 37.364 106.687 31.9694 99.5142 31.9694C92.3416 31.9694 86.5271 37.364 86.5271 44.0187C86.5271 50.6734 92.3416 56.068 99.5142 56.068Z" fill="#F2F2F2"/>
<path d="M206.781 28.3699H134.004V14.2407H206.781V28.3699ZM134.324 28.0724H206.461V14.5382H134.324V28.0724Z" fill="#3F3D56"/>
<path d="M201.491 17.0665H129.034V30.8982H201.491V17.0665Z" fill="#20564E"/>
<path d="M83.2305 3.867C83.8503 3.867 84.3527 3.40088 84.3527 2.8259C84.3527 2.25091 83.8503 1.78479 83.2305 1.78479C82.6108 1.78479 82.1084 2.25091 82.1084 2.8259C82.1084 3.40088 82.6108 3.867 83.2305 3.867Z" fill="#20564E"/>
<path d="M87.0779 3.867C87.6977 3.867 88.2001 3.40088 88.2001 2.8259C88.2001 2.25091 87.6977 1.78479 87.0779 1.78479C86.4582 1.78479 85.9558 2.25091 85.9558 2.8259C85.9558 3.40088 86.4582 3.867 87.0779 3.867Z" fill="#20564E"/>
<path d="M90.9251 3.867C91.5449 3.867 92.0472 3.40088 92.0472 2.8259C92.0472 2.25091 91.5449 1.78479 90.9251 1.78479C90.3054 1.78479 89.803 2.25091 89.803 2.8259C89.803 3.40088 90.3054 3.867 90.9251 3.867Z" fill="#20564E"/>
<path d="M215 81.5029H80.0247V0H215V81.5029ZM80.3453 81.2054H214.679V0.297456H80.3453V81.2054Z" fill="#3F3D56"/>
<path d="M214.84 4.51172H80.1848V4.80918H214.84V4.51172Z" fill="#3F3D56"/>
<path d="M83.5512 3.56946C83.2976 3.56946 83.0496 3.49968 82.8388 3.36894C82.6279 3.2382 82.4635 3.05238 82.3664 2.83497C82.2694 2.61756 82.244 2.37832 82.2934 2.14752C82.3429 1.91672 82.4651 1.70471 82.6444 1.53831C82.8238 1.37191 83.0523 1.25859 83.301 1.21268C83.5498 1.16677 83.8077 1.19034 84.042 1.28039C84.2763 1.37044 84.4766 1.52295 84.6175 1.71861C84.7584 1.91428 84.8337 2.14432 84.8337 2.37964C84.8333 2.69509 84.698 2.99751 84.4576 3.22057C84.2172 3.44363 83.8912 3.5691 83.5512 3.56946ZM83.5512 1.48728C83.361 1.48728 83.175 1.53961 83.0169 1.63767C82.8587 1.73572 82.7354 1.87509 82.6626 2.03815C82.5898 2.20121 82.5708 2.38063 82.6079 2.55373C82.645 2.72684 82.7366 2.88584 82.8711 3.01064C83.0056 3.13544 83.177 3.22043 83.3636 3.25486C83.5502 3.28929 83.7436 3.27162 83.9193 3.20408C84.0951 3.13654 84.2453 3.02216 84.351 2.87541C84.4566 2.72867 84.5131 2.55614 84.5131 2.37964C84.5128 2.14306 84.4113 1.91624 84.231 1.74895C84.0507 1.58166 83.8062 1.48755 83.5512 1.48728Z" fill="#3F3D56"/>
<path d="M87.3986 3.56946C87.145 3.56946 86.8971 3.49968 86.6862 3.36894C86.4753 3.2382 86.3109 3.05238 86.2138 2.83497C86.1168 2.61756 86.0914 2.37832 86.1409 2.14752C86.1903 1.91672 86.3125 1.70471 86.4918 1.53831C86.6712 1.37191 86.8997 1.25859 87.1485 1.21268C87.3972 1.16677 87.6551 1.19034 87.8894 1.28039C88.1237 1.37044 88.324 1.52295 88.4649 1.71861C88.6059 1.91428 88.6811 2.14432 88.6811 2.37964C88.6807 2.69509 88.5454 2.99751 88.305 3.22057C88.0646 3.44363 87.7386 3.5691 87.3986 3.56946ZM87.3986 1.48728C87.2084 1.48728 87.0225 1.53961 86.8643 1.63767C86.7061 1.73572 86.5828 1.87509 86.51 2.03815C86.4372 2.20121 86.4182 2.38063 86.4553 2.55373C86.4924 2.72684 86.584 2.88584 86.7185 3.01064C86.853 3.13544 87.0244 3.22043 87.211 3.25486C87.3976 3.28929 87.591 3.27162 87.7667 3.20408C87.9425 3.13654 88.0927 3.02216 88.1984 2.87541C88.3041 2.72867 88.3605 2.55614 88.3605 2.37964C88.3602 2.14306 88.2587 1.91624 88.0784 1.74895C87.8981 1.58166 87.6536 1.48755 87.3986 1.48728Z" fill="#3F3D56"/>
<path d="M91.2458 3.56946C90.9922 3.56947 90.7442 3.49968 90.5333 3.36894C90.3224 3.23821 90.1581 3.05238 90.061 2.83497C89.9639 2.61756 89.9385 2.37832 89.988 2.14752C90.0375 1.91672 90.1596 1.70471 90.339 1.53831C90.5183 1.37191 90.7468 1.25859 90.9956 1.21268C91.2444 1.16677 91.5022 1.19033 91.7366 1.28039C91.9709 1.37044 92.1712 1.52294 92.3121 1.71861C92.453 1.91428 92.5282 2.14432 92.5282 2.37964C92.5278 2.69509 92.3926 2.99751 92.1522 3.22057C91.9118 3.44363 91.5858 3.5691 91.2458 3.56946ZM91.2458 1.48727C91.0556 1.48727 90.8696 1.53961 90.7114 1.63767C90.5533 1.73572 90.43 1.87509 90.3572 2.03815C90.2844 2.20121 90.2654 2.38063 90.3025 2.55373C90.3396 2.72684 90.4312 2.88584 90.5657 3.01064C90.7002 3.13544 90.8716 3.22043 91.0582 3.25486C91.2447 3.2893 91.4381 3.27162 91.6139 3.20408C91.7896 3.13654 91.9398 3.02216 92.0455 2.87541C92.1512 2.72867 92.2076 2.55614 92.2076 2.37964C92.2073 2.14306 92.1059 1.91624 91.9256 1.74895C91.7453 1.58166 91.5008 1.48755 91.2458 1.48727Z" fill="#3F3D56"/>
<path d="M122.621 4.6604H122.301V81.4695H122.621V4.6604Z" fill="#3F3D56"/>
<path d="M161.175 42.4246H137.61V45.3991H161.175V42.4246Z" fill="#F2F2F2"/>
<path d="M198.205 42.4246H174.641V45.3991H198.205V42.4246Z" fill="#F2F2F2"/>
<path d="M162.618 44.0606H138.732V40.7886H162.618V44.0606ZM139.053 43.7631H162.297V41.086H139.053V43.7631Z" fill="#3F3D56"/>
<path d="M161.175 65.4774H137.61V68.452H161.175V65.4774Z" fill="#F2F2F2"/>
<path d="M162.618 67.1134H138.732V63.8414H162.618V67.1134ZM139.053 66.816H162.297V64.1389H139.053V66.816Z" fill="#3F3D56"/>
<path d="M198.285 53.6536H137.691V56.6281H198.285V53.6536Z" fill="#F2F2F2"/>
<path d="M199.728 55.587H138.813V52.3149H199.728V55.587ZM139.133 55.2895H199.407V52.6124H139.133V55.2895Z" fill="#3F3D56"/>
<path d="M199.648 44.0606H175.763V40.7886H199.648V44.0606ZM176.083 43.7631H199.327V41.086H176.083V43.7631Z" fill="#3F3D56"/>
<path d="M101.712 52.9167C99.104 52.9167 96.5544 52.1992 94.3858 50.8548C92.2172 49.5104 90.527 47.5996 89.529 45.364C88.5309 43.1284 88.2697 40.6684 88.7785 38.2951C89.2874 35.9218 90.5433 33.7418 92.3875 32.0307C94.2317 30.3197 96.5814 29.1544 99.1395 28.6824C101.697 28.2103 104.349 28.4526 106.759 29.3786C109.168 30.3046 111.228 31.8728 112.677 33.8847C114.126 35.8967 114.899 38.2622 114.899 40.682C114.895 43.9257 113.504 47.0355 111.032 49.3292C108.56 51.6229 105.208 52.913 101.712 52.9167ZM101.712 28.818C99.183 28.818 96.7107 29.5138 94.6078 30.8175C92.505 32.1211 90.866 33.974 89.8981 36.1418C88.9303 38.3097 88.6771 40.6951 89.1705 42.9965C89.6639 45.2979 90.8817 47.4119 92.6701 49.0711C94.4584 50.7303 96.7369 51.8602 99.2174 52.318C101.698 52.7758 104.269 52.5408 106.606 51.6429C108.942 50.7449 110.939 49.2243 112.344 47.2733C113.749 45.3222 114.499 43.0285 114.499 40.682C114.496 37.5366 113.147 34.521 110.75 32.2968C108.353 30.0727 105.102 28.8216 101.712 28.818Z" fill="#3F3D56"/>
<path d="M206.009 138.004H149.465V138.374H206.009V138.004Z" fill="#3F3D56"/>
</g>
<defs>
<clipPath id="clip0_39_183">
<rect width="215" height="140" fill="white"/>
</clipPath>
</defs>
</svg>
